<svg width="882" height="147" xmlns="http://www.w3.org/2000/svg">
  <style>
    text { fill: #767676; font-size: 11px; font-family: -apple-system, BlinkMacSystemFont, "Segoe UI", Helvetica, Arial, sans-serif; }
  </style>
  <text x="0" y="52" text-anchor="start">Mon</text>
  <text x="0" y="84" text-anchor="start">Wed</text>
  <text x="0" y="116" text-anchor="start">Fri</text>
  <text x="40" y="17">Apr</text>
  <text x="104" y="17">May</text>
  <text x="168" y="17">Jun</text>
  <text x="248" y="17">Jul</text>
  <text x="312" y="17">Aug</text>
  <text x="392" y="17">Sep</text>
  <text x="456" y="17">Oct</text>
  <text x="520" y="17">Nov</text>
  <text x="600" y="17">Dec</text>
  <text x="664" y="17">Jan</text>
  <text x="728" y="17">Feb</text>
  <text x="792" y="17">Mar</text>
  <rect x="40" y="25" width="13" height="13" rx="2" ry="2" fill="#ebedf0"><title>2025-04-06</title></rect>
  <rect x="40" y="41" width="13" height="13" rx="2" ry="2" fill="#ebedf0"><title>2025-04-07</title></rect>
  <rect x="40" y="57" width="13" height="13" rx="2" ry="2" fill="#ebedf0"><title>2025-04-08</title></rect>
  <rect x="40" y="73" width="13" height="13" rx="2" ry="2" fill="#ebedf0"><title>2025-04-09</title></rect>
  <rect x="40" y="89" width="13" height="13" rx="2" ry="2" fill="#ebedf0"><title>2025-04-10</title></rect>
  <rect x="40" y="105" width="13" height="13" rx="2" ry="2" fill="#ebedf0"><title>2025-04-11</title></rect>
  <rect x="40" y="121" width="13" height="13" rx="2" ry="2" fill="#ebedf0"><title>2025-04-12</title></rect>
  <rect x="56" y="25" width="13" height="13" rx="2" ry="2" fill="#ebedf0"><title>2025-04-13</title></rect>
  <rect x="56" y="41" width="13" height="13" rx="2" ry="2" fill="#ebedf0"><title>2025-04-14</title></rect>
  <rect x="56" y="57" width="13" height="13" rx="2" ry="2" fill="#ebedf0"><title>2025-04-15</title></rect>
  <rect x="56" y="73" width="13" height="13" rx="2" ry="2" fill="#ebedf0"><title>2025-04-16</title></rect>
  <rect x="56" y="89" width="13" height="13" rx="2" ry="2" fill="#ebedf0"><title>2025-04-17</title></rect>
  <rect x="56" y="105" width="13" height="13" rx="2" ry="2" fill="#ebedf0"><title>2025-04-18</title></rect>
  <rect x="56" y="121" width="13" height="13" rx="2" ry="2" fill="#ebedf0"><title>2025-04-19</title></rect>
  <rect x="72" y="25" width="13" height="13" rx="2" ry="2" fill="#ebedf0"><title>2025-04-20</title></rect>
  <rect x="72" y="41" width="13" height="13" rx="2" ry="2" fill="#ebedf0"><title>2025-04-21</title></rect>
  <rect x="72" y="57" width="13" height="13" rx="2" ry="2" fill="#ebedf0"><title>2025-04-22</title></rect>
  <rect x="72" y="73" width="13" height="13" rx="2" ry="2" fill="#ebedf0"><title>2025-04-23</title></rect>
  <rect x="72" y="89" width="13" height="13" rx="2" ry="2" fill="#ebedf0"><title>2025-04-24</title></rect>
  <rect x="72" y="105" width="13" height="13" rx="2" ry="2" fill="#ebedf0"><title>2025-04-25</title></rect>
  <rect x="72" y="121" width="13" height="13" rx="2" ry="2" fill="#ebedf0"><title>2025-04-26</title></rect>
  <rect x="88" y="25" width="13" height="13" rx="2" ry="2" fill="#ebedf0"><title>2025-04-27</title></rect>
  <rect x="88" y="41" width="13" height="13" rx="2" ry="2" fill="#ebedf0"><title>2025-04-28</title></rect>
  <rect x="88" y="57" width="13" height="13" rx="2" ry="2" fill="#ebedf0"><title>2025-04-29</title></rect>
  <rect x="88" y="73" width="13" height="13" rx="2" ry="2" fill="#ebedf0"><title>2025-04-30</title></rect>
  <rect x="88" y="89" width="13" height="13" rx="2" ry="2" fill="#ebedf0"><title>2025-05-01</title></rect>
  <rect x="88" y="105" width="13" height="13" rx="2" ry="2" fill="#ebedf0"><title>2025-05-02</title></rect>
  <rect x="88" y="121" width="13" height="13" rx="2" ry="2" fill="#ebedf0"><title>2025-05-03</title></rect>
  <rect x="104" y="25" width="13" height="13" rx="2" ry="2" fill="#ebedf0"><title>2025-05-04</title></rect>
  <rect x="104" y="41" width="13" height="13" rx="2" ry="2" fill="#ebedf0"><title>2025-05-05</title></rect>
  <rect x="104" y="57" width="13" height="13" rx="2" ry="2" fill="#ebedf0"><title>2025-05-06</title></rect>
  <rect x="104" y="73" width="13" height="13" rx="2" ry="2" fill="#ebedf0"><title>2025-05-07</title></rect>
  <rect x="104" y="89" width="13" height="13" rx="2" ry="2" fill="#ebedf0"><title>2025-05-08</title></rect>
  <rect x="104" y="105" width="13" height="13" rx="2" ry="2" fill="#ebedf0"><title>2025-05-09</title></rect>
  <rect x="104" y="121" width="13" height="13" rx="2" ry="2" fill="#ebedf0"><title>2025-05-10</title></rect>
  <rect x="120" y="25" width="13" height="13" rx="2" ry="2" fill="#ebedf0"><title>2025-05-11</title></rect>
  <rect x="120" y="41" width="13" height="13" rx="2" ry="2" fill="#ebedf0"><title>2025-05-12</title></rect>
  <rect x="120" y="57" width="13" height="13" rx="2" ry="2" fill="#ebedf0"><title>2025-05-13</title></rect>
  <rect x="120" y="73" width="13" height="13" rx="2" ry="2" fill="#ebedf0"><title>2025-05-14</title></rect>
  <rect x="120" y="89" width="13" height="13" rx="2" ry="2" fill="#ebedf0"><title>2025-05-15</title></rect>
  <rect x="120" y="105" width="13" height="13" rx="2" ry="2" fill="#ebedf0"><title>2025-05-16</title></rect>
  <rect x="120" y="121" width="13" height="13" rx="2" ry="2" fill="#ebedf0"><title>2025-05-17</title></rect>
  <rect x="136" y="25" width="13" height="13" rx="2" ry="2" fill="#ebedf0"><title>2025-05-18</title></rect>
  <rect x="136" y="41" width="13" height="13" rx="2" ry="2" fill="#ebedf0"><title>2025-05-19</title></rect>
  <rect x="136" y="57" width="13" height="13" rx="2" ry="2" fill="#ebedf0"><title>2025-05-20</title></rect>
  <rect x="136" y="73" width="13" height="13" rx="2" ry="2" fill="#ebedf0"><title>2025-05-21</title></rect>
  <rect x="136" y="89" width="13" height="13" rx="2" ry="2" fill="#ebedf0"><title>2025-05-22</title></rect>
  <rect x="136" y="105" width="13" height="13" rx="2" ry="2" fill="#ebedf0"><title>2025-05-23</title></rect>
  <rect x="136" y="121" width="13" height="13" rx="2" ry="2" fill="#ebedf0"><title>2025-05-24</title></rect>
  <rect x="152" y="25" width="13" height="13" rx="2" ry="2" fill="#ebedf0"><title>2025-05-25</title></rect>
  <rect x="152" y="41" width="13" height="13" rx="2" ry="2" fill="#ebedf0"><title>2025-05-26</title></rect>
  <rect x="152" y="57" width="13" height="13" rx="2" ry="2" fill="#ebedf0"><title>2025-05-27</title></rect>
  <rect x="152" y="73" width="13" height="13" rx="2" ry="2" fill="#ebedf0"><title>2025-05-28</title></rect>
  <rect x="152" y="89" width="13" height="13" rx="2" ry="2" fill="#ebedf0"><title>2025-05-29</title></rect>
  <rect x="152" y="105" width="13" height="13" rx="2" ry="2" fill="#ebedf0"><title>2025-05-30</title></rect>
  <rect x="152" y="121" width="13" height="13" rx="2" ry="2" fill="#ebedf0"><title>2025-05-31</title></rect>
  <rect x="168" y="25" width="13" height="13" rx="2" ry="2" fill="#ebedf0"><title>2025-06-01</title></rect>
  <rect x="168" y="41" width="13" height="13" rx="2" ry="2" fill="#ebedf0"><title>2025-06-02</title></rect>
  <rect x="168" y="57" width="13" height="13" rx="2" ry="2" fill="#ebedf0"><title>2025-06-03</title></rect>
  <rect x="168" y="73" width="13" height="13" rx="2" ry="2" fill="#ebedf0"><title>2025-06-04</title></rect>
  <rect x="168" y="89" width="13" height="13" rx="2" ry="2" fill="#ebedf0"><title>2025-06-05</title></rect>
  <rect x="168" y="105" width="13" height="13" rx="2" ry="2" fill="#ebedf0"><title>2025-06-06</title></rect>
  <rect x="168" y="121" width="13" height="13" rx="2" ry="2" fill="#ebedf0"><title>2025-06-07</title></rect>
  <rect x="184" y="25" width="13" height="13" rx="2" ry="2" fill="#ebedf0"><title>2025-06-08</title></rect>
  <rect x="184" y="41" width="13" height="13" rx="2" ry="2" fill="#ebedf0"><title>2025-06-09</title></rect>
  <rect x="184" y="57" width="13" height="13" rx="2" ry="2" fill="#ebedf0"><title>2025-06-10</title></rect>
  <rect x="184" y="73" width="13" height="13" rx="2" ry="2" fill="#ebedf0"><title>2025-06-11</title></rect>
  <rect x="184" y="89" width="13" height="13" rx="2" ry="2" fill="#ebedf0"><title>2025-06-12</title></rect>
  <rect x="184" y="105" width="13" height="13" rx="2" ry="2" fill="#ebedf0"><title>2025-06-13</title></rect>
  <rect x="184" y="121" width="13" height="13" rx="2" ry="2" fill="#ebedf0"><title>2025-06-14</title></rect>
  <rect x="200" y="25" width="13" height="13" rx="2" ry="2" fill="#ebedf0"><title>2025-06-15</title></rect>
  <rect x="200" y="41" width="13" height="13" rx="2" ry="2" fill="#ebedf0"><title>2025-06-16</title></rect>
  <rect x="200" y="57" width="13" height="13" rx="2" ry="2" fill="#ebedf0"><title>2025-06-17</title></rect>
  <rect x="200" y="73" width="13" height="13" rx="2" ry="2" fill="#ebedf0"><title>2025-06-18</title></rect>
  <rect x="200" y="89" width="13" height="13" rx="2" ry="2" fill="#ebedf0"><title>2025-06-19</title></rect>
  <rect x="200" y="105" width="13" height="13" rx="2" ry="2" fill="#ebedf0"><title>2025-06-20</title></rect>
  <rect x="200" y="121" width="13" height="13" rx="2" ry="2" fill="#ebedf0"><title>2025-06-21</title></rect>
  <rect x="216" y="25" width="13" height="13" rx="2" ry="2" fill="#ebedf0"><title>2025-06-22</title></rect>
  <rect x="216" y="41" width="13" height="13" rx="2" ry="2" fill="#ebedf0"><title>2025-06-23</title></rect>
  <rect x="216" y="57" width="13" height="13" rx="2" ry="2" fill="#ebedf0"><title>2025-06-24</title></rect>
  <rect x="216" y="73" width="13" height="13" rx="2" ry="2" fill="#ebedf0"><title>2025-06-25</title></rect>
  <rect x="216" y="89" width="13" height="13" rx="2" ry="2" fill="#ebedf0"><title>2025-06-26</title></rect>
  <rect x="216" y="105" width="13" height="13" rx="2" ry="2" fill="#ebedf0"><title>2025-06-27</title></rect>
  <rect x="216" y="121" width="13" height="13" rx="2" ry="2" fill="#ebedf0"><title>2025-06-28</title></rect>
  <rect x="232" y="25" width="13" height="13" rx="2" ry="2" fill="#ebedf0"><title>2025-06-29</title></rect>
  <rect x="232" y="41" width="13" height="13" rx="2" ry="2" fill="#ebedf0"><title>2025-06-30</title></rect>
  <rect x="232" y="57" width="13" height="13" rx="2" ry="2" fill="#ebedf0"><title>2025-07-01</title></rect>
  <rect x="232" y="73" width="13" height="13" rx="2" ry="2" fill="#ebedf0"><title>2025-07-02</title></rect>
  <rect x="232" y="89" width="13" height="13" rx="2" ry="2" fill="#ebedf0"><title>2025-07-03</title></rect>
  <rect x="232" y="105" width="13" height="13" rx="2" ry="2" fill="#ebedf0"><title>2025-07-04</title></rect>
  <rect x="232" y="121" width="13" height="13" rx="2" ry="2" fill="#ebedf0"><title>2025-07-05</title></rect>
  <rect x="248" y="25" width="13" height="13" rx="2" ry="2" fill="#ebedf0"><title>2025-07-06</title></rect>
  <rect x="248" y="41" width="13" height="13" rx="2" ry="2" fill="#ebedf0"><title>2025-07-07</title></rect>
  <rect x="248" y="57" width="13" height="13" rx="2" ry="2" fill="#ebedf0"><title>2025-07-08</title></rect>
  <rect x="248" y="73" width="13" height="13" rx="2" ry="2" fill="#ebedf0"><title>2025-07-09</title></rect>
  <rect x="248" y="89" width="13" height="13" rx="2" ry="2" fill="#ebedf0"><title>2025-07-10</title></rect>
  <rect x="248" y="105" width="13" height="13" rx="2" ry="2" fill="#ebedf0"><title>2025-07-11</title></rect>
  <rect x="248" y="121" width="13" height="13" rx="2" ry="2" fill="#ebedf0"><title>2025-07-12</title></rect>
  <rect x="264" y="25" width="13" height="13" rx="2" ry="2" fill="#ebedf0"><title>2025-07-13</title></rect>
  <rect x="264" y="41" width="13" height="13" rx="2" ry="2" fill="#ebedf0"><title>2025-07-14</title></rect>
  <rect x="264" y="57" width="13" height="13" rx="2" ry="2" fill="#ebedf0"><title>2025-07-15</title></rect>
  <rect x="264" y="73" width="13" height="13" rx="2" ry="2" fill="#ebedf0"><title>2025-07-16</title></rect>
  <rect x="264" y="89" width="13" height="13" rx="2" ry="2" fill="#ebedf0"><title>2025-07-17</title></rect>
  <rect x="264" y="105" width="13" height="13" rx="2" ry="2" fill="#ebedf0"><title>2025-07-18</title></rect>
  <rect x="264" y="121" width="13" height="13" rx="2" ry="2" fill="#ebedf0"><title>2025-07-19</title></rect>
  <rect x="280" y="25" width="13" height="13" rx="2" ry="2" fill="#ebedf0"><title>2025-07-20</title></rect>
  <rect x="280" y="41" width="13" height="13" rx="2" ry="2" fill="#ebedf0"><title>2025-07-21</title></rect>
  <rect x="280" y="57" width="13" height="13" rx="2" ry="2" fill="#ebedf0"><title>2025-07-22</title></rect>
  <rect x="280" y="73" width="13" height="13" rx="2" ry="2" fill="#ebedf0"><title>2025-07-23</title></rect>
  <rect x="280" y="89" width="13" height="13" rx="2" ry="2" fill="#ebedf0"><title>2025-07-24</title></rect>
  <rect x="280" y="105" width="13" height="13" rx="2" ry="2" fill="#ebedf0"><title>2025-07-25</title></rect>
  <rect x="280" y="121" width="13" height="13" rx="2" ry="2" fill="#ebedf0"><title>2025-07-26</title></rect>
  <rect x="296" y="25" width="13" height="13" rx="2" ry="2" fill="#ebedf0"><title>2025-07-27</title></rect>
  <rect x="296" y="41" width="13" height="13" rx="2" ry="2" fill="#ebedf0"><title>2025-07-28</title></rect>
  <rect x="296" y="57" width="13" height="13" rx="2" ry="2" fill="#ebedf0"><title>2025-07-29</title></rect>
  <rect x="296" y="73" width="13" height="13" rx="2" ry="2" fill="#ebedf0"><title>2025-07-30</title></rect>
  <rect x="296" y="89" width="13" height="13" rx="2" ry="2" fill="#ebedf0"><title>2025-07-31</title></rect>
  <rect x="296" y="105" width="13" height="13" rx="2" ry="2" fill="#ebedf0"><title>2025-08-01</title></rect>
  <rect x="296" y="121" width="13" height="13" rx="2" ry="2" fill="#ebedf0"><title>2025-08-02</title></rect>
  <rect x="312" y="25" width="13" height="13" rx="2" ry="2" fill="#ebedf0"><title>2025-08-03</title></rect>
  <rect x="312" y="41" width="13" height="13" rx="2" ry="2" fill="#ebedf0"><title>2025-08-04</title></rect>
  <rect x="312" y="57" width="13" height="13" rx="2" ry="2" fill="#ebedf0"><title>2025-08-05</title></rect>
  <rect x="312" y="73" width="13" height="13" rx="2" ry="2" fill="#ebedf0"><title>2025-08-06</title></rect>
  <rect x="312" y="89" width="13" height="13" rx="2" ry="2" fill="#ebedf0"><title>2025-08-07</title></rect>
  <rect x="312" y="105" width="13" height="13" rx="2" ry="2" fill="#ebedf0"><title>2025-08-08</title></rect>
  <rect x="312" y="121" width="13" height="13" rx="2" ry="2" fill="#ebedf0"><title>2025-08-09</title></rect>
  <rect x="328" y="25" width="13" height="13" rx="2" ry="2" fill="#ebedf0"><title>2025-08-10</title></rect>
  <rect x="328" y="41" width="13" height="13" rx="2" ry="2" fill="#ebedf0"><title>2025-08-11</title></rect>
  <rect x="328" y="57" width="13" height="13" rx="2" ry="2" fill="#ebedf0"><title>2025-08-12</title></rect>
  <rect x="328" y="73" width="13" height="13" rx="2" ry="2" fill="#ebedf0"><title>2025-08-13</title></rect>
  <rect x="328" y="89" width="13" height="13" rx="2" ry="2" fill="#ebedf0"><title>2025-08-14</title></rect>
  <rect x="328" y="105" width="13" height="13" rx="2" ry="2" fill="#ebedf0"><title>2025-08-15</title></rect>
  <rect x="328" y="121" width="13" height="13" rx="2" ry="2" fill="#ebedf0"><title>2025-08-16</title></rect>
  <rect x="344" y="25" width="13" height="13" rx="2" ry="2" fill="#ebedf0"><title>2025-08-17</title></rect>
  <rect x="344" y="41" width="13" height="13" rx="2" ry="2" fill="#ebedf0"><title>2025-08-18</title></rect>
  <rect x="344" y="57" width="13" height="13" rx="2" ry="2" fill="#ebedf0"><title>2025-08-19</title></rect>
  <rect x="344" y="73" width="13" height="13" rx="2" ry="2" fill="#ebedf0"><title>2025-08-20</title></rect>
  <rect x="344" y="89" width="13" height="13" rx="2" ry="2" fill="#ebedf0"><title>2025-08-21</title></rect>
  <rect x="344" y="105" width="13" height="13" rx="2" ry="2" fill="#ebedf0"><title>2025-08-22</title></rect>
  <rect x="344" y="121" width="13" height="13" rx="2" ry="2" fill="#ebedf0"><title>2025-08-23</title></rect>
  <rect x="360" y="25" width="13" height="13" rx="2" ry="2" fill="#ebedf0"><title>2025-08-24</title></rect>
  <rect x="360" y="41" width="13" height="13" rx="2" ry="2" fill="#ebedf0"><title>2025-08-25</title></rect>
  <rect x="360" y="57" width="13" height="13" rx="2" ry="2" fill="#ebedf0"><title>2025-08-26</title></rect>
  <rect x="360" y="73" width="13" height="13" rx="2" ry="2" fill="#ebedf0"><title>2025-08-27</title></rect>
  <rect x="360" y="89" width="13" height="13" rx="2" ry="2" fill="#ebedf0"><title>2025-08-28</title></rect>
  <rect x="360" y="105" width="13" height="13" rx="2" ry="2" fill="#ebedf0"><title>2025-08-29</title></rect>
  <rect x="360" y="121" width="13" height="13" rx="2" ry="2" fill="#ebedf0"><title>2025-08-30</title></rect>
  <rect x="376" y="25" width="13" height="13" rx="2" ry="2" fill="#ebedf0"><title>2025-08-31</title></rect>
  <rect x="376" y="41" width="13" height="13" rx="2" ry="2" fill="#ebedf0"><title>2025-09-01</title></rect>
  <rect x="376" y="57" width="13" height="13" rx="2" ry="2" fill="#ebedf0"><title>2025-09-02</title></rect>
  <rect x="376" y="73" width="13" height="13" rx="2" ry="2" fill="#ebedf0"><title>2025-09-03</title></rect>
  <rect x="376" y="89" width="13" height="13" rx="2" ry="2" fill="#ebedf0"><title>2025-09-04</title></rect>
  <rect x="376" y="105" width="13" height="13" rx="2" ry="2" fill="#ebedf0"><title>2025-09-05</title></rect>
  <rect x="376" y="121" width="13" height="13" rx="2" ry="2" fill="#ebedf0"><title>2025-09-06</title></rect>
  <rect x="392" y="25" width="13" height="13" rx="2" ry="2" fill="#ebedf0"><title>2025-09-07</title></rect>
  <rect x="392" y="41" width="13" height="13" rx="2" ry="2" fill="#ebedf0"><title>2025-09-08</title></rect>
  <rect x="392" y="57" width="13" height="13" rx="2" ry="2" fill="#ebedf0"><title>2025-09-09</title></rect>
  <rect x="392" y="73" width="13" height="13" rx="2" ry="2" fill="#ebedf0"><title>2025-09-10</title></rect>
  <rect x="392" y="89" width="13" height="13" rx="2" ry="2" fill="#ebedf0"><title>2025-09-11</title></rect>
  <rect x="392" y="105" width="13" height="13" rx="2" ry="2" fill="#ebedf0"><title>2025-09-12</title></rect>
  <rect x="392" y="121" width="13" height="13" rx="2" ry="2" fill="#ebedf0"><title>2025-09-13</title></rect>
  <rect x="408" y="25" width="13" height="13" rx="2" ry="2" fill="#ebedf0"><title>2025-09-14</title></rect>
  <rect x="408" y="41" width="13" height="13" rx="2" ry="2" fill="#ebedf0"><title>2025-09-15</title></rect>
  <rect x="408" y="57" width="13" height="13" rx="2" ry="2" fill="#ebedf0"><title>2025-09-16</title></rect>
  <rect x="408" y="73" width="13" height="13" rx="2" ry="2" fill="#ebedf0"><title>2025-09-17</title></rect>
  <rect x="408" y="89" width="13" height="13" rx="2" ry="2" fill="#ebedf0"><title>2025-09-18</title></rect>
  <rect x="408" y="105" width="13" height="13" rx="2" ry="2" fill="#ebedf0"><title>2025-09-19</title></rect>
  <rect x="408" y="121" width="13" height="13" rx="2" ry="2" fill="#ebedf0"><title>2025-09-20</title></rect>
  <rect x="424" y="25" width="13" height="13" rx="2" ry="2" fill="#ebedf0"><title>2025-09-21</title></rect>
  <rect x="424" y="41" width="13" height="13" rx="2" ry="2" fill="#ebedf0"><title>2025-09-22</title></rect>
  <rect x="424" y="57" width="13" height="13" rx="2" ry="2" fill="#ebedf0"><title>2025-09-23</title></rect>
  <rect x="424" y="73" width="13" height="13" rx="2" ry="2" fill="#ebedf0"><title>2025-09-24</title></rect>
  <rect x="424" y="89" width="13" height="13" rx="2" ry="2" fill="#ebedf0"><title>2025-09-25</title></rect>
  <rect x="424" y="105" width="13" height="13" rx="2" ry="2" fill="#ebedf0"><title>2025-09-26</title></rect>
  <rect x="424" y="121" width="13" height="13" rx="2" ry="2" fill="#ebedf0"><title>2025-09-27</title></rect>
  <rect x="440" y="25" width="13" height="13" rx="2" ry="2" fill="#ebedf0"><title>2025-09-28</title></rect>
  <rect x="440" y="41" width="13" height="13" rx="2" ry="2" fill="#ebedf0"><title>2025-09-29</title></rect>
  <rect x="440" y="57" width="13" height="13" rx="2" ry="2" fill="#ebedf0"><title>2025-09-30</title></rect>
  <rect x="440" y="73" width="13" height="13" rx="2" ry="2" fill="#ebedf0"><title>2025-10-01</title></rect>
  <rect x="440" y="89" width="13" height="13" rx="2" ry="2" fill="#ebedf0"><title>2025-10-02</title></rect>
  <rect x="440" y="105" width="13" height="13" rx="2" ry="2" fill="#ebedf0"><title>2025-10-03</title></rect>
  <rect x="440" y="121" width="13" height="13" rx="2" ry="2" fill="#ebedf0"><title>2025-10-04</title></rect>
  <rect x="456" y="25" width="13" height="13" rx="2" ry="2" fill="#ebedf0"><title>2025-10-05</title></rect>
  <rect x="456" y="41" width="13" height="13" rx="2" ry="2" fill="#ebedf0"><title>2025-10-06</title></rect>
  <rect x="456" y="57" width="13" height="13" rx="2" ry="2" fill="#ebedf0"><title>2025-10-07</title></rect>
  <rect x="456" y="73" width="13" height="13" rx="2" ry="2" fill="#ebedf0"><title>2025-10-08</title></rect>
  <rect x="456" y="89" width="13" height="13" rx="2" ry="2" fill="#ebedf0"><title>2025-10-09</title></rect>
  <rect x="456" y="105" width="13" height="13" rx="2" ry="2" fill="#ebedf0"><title>2025-10-10</title></rect>
  <rect x="456" y="121" width="13" height="13" rx="2" ry="2" fill="#ebedf0"><title>2025-10-11</title></rect>
  <rect x="472" y="25" width="13" height="13" rx="2" ry="2" fill="#ebedf0"><title>2025-10-12</title></rect>
  <rect x="472" y="41" width="13" height="13" rx="2" ry="2" fill="#ebedf0"><title>2025-10-13</title></rect>
  <rect x="472" y="57" width="13" height="13" rx="2" ry="2" fill="#ebedf0"><title>2025-10-14</title></rect>
  <rect x="472" y="73" width="13" height="13" rx="2" ry="2" fill="#ebedf0"><title>2025-10-15</title></rect>
  <rect x="472" y="89" width="13" height="13" rx="2" ry="2" fill="#ebedf0"><title>2025-10-16</title></rect>
  <rect x="472" y="105" width="13" height="13" rx="2" ry="2" fill="#ebedf0"><title>2025-10-17</title></rect>
  <rect x="472" y="121" width="13" height="13" rx="2" ry="2" fill="#ebedf0"><title>2025-10-18</title></rect>
  <rect x="488" y="25" width="13" height="13" rx="2" ry="2" fill="#ebedf0"><title>2025-10-19</title></rect>
  <rect x="488" y="41" width="13" height="13" rx="2" ry="2" fill="#ebedf0"><title>2025-10-20</title></rect>
  <rect x="488" y="57" width="13" height="13" rx="2" ry="2" fill="#ebedf0"><title>2025-10-21</title></rect>
  <rect x="488" y="73" width="13" height="13" rx="2" ry="2" fill="#ebedf0"><title>2025-10-22</title></rect>
  <rect x="488" y="89" width="13" height="13" rx="2" ry="2" fill="#ebedf0"><title>2025-10-23</title></rect>
  <rect x="488" y="105" width="13" height="13" rx="2" ry="2" fill="#ebedf0"><title>2025-10-24</title></rect>
  <rect x="488" y="121" width="13" height="13" rx="2" ry="2" fill="#ebedf0"><title>2025-10-25</title></rect>
  <rect x="504" y="25" width="13" height="13" rx="2" ry="2" fill="#ebedf0"><title>2025-10-26</title></rect>
  <rect x="504" y="41" width="13" height="13" rx="2" ry="2" fill="#ebedf0"><title>2025-10-27</title></rect>
  <rect x="504" y="57" width="13" height="13" rx="2" ry="2" fill="#ebedf0"><title>2025-10-28</title></rect>
  <rect x="504" y="73" width="13" height="13" rx="2" ry="2" fill="#ebedf0"><title>2025-10-29</title></rect>
  <rect x="504" y="89" width="13" height="13" rx="2" ry="2" fill="#ebedf0"><title>2025-10-30</title></rect>
  <rect x="504" y="105" width="13" height="13" rx="2" ry="2" fill="#ebedf0"><title>2025-10-31</title></rect>
  <rect x="504" y="121" width="13" height="13" rx="2" ry="2" fill="#ebedf0"><title>2025-11-01</title></rect>
  <rect x="520" y="25" width="13" height="13" rx="2" ry="2" fill="#ebedf0"><title>2025-11-02</title></rect>
  <rect x="520" y="41" width="13" height="13" rx="2" ry="2" fill="#ebedf0"><title>2025-11-03</title></rect>
  <rect x="520" y="57" width="13" height="13" rx="2" ry="2" fill="#ebedf0"><title>2025-11-04</title></rect>
  <rect x="520" y="73" width="13" height="13" rx="2" ry="2" fill="#ebedf0"><title>2025-11-05</title></rect>
  <rect x="520" y="89" width="13" height="13" rx="2" ry="2" fill="#ebedf0"><title>2025-11-06</title></rect>
  <rect x="520" y="105" width="13" height="13" rx="2" ry="2" fill="#ebedf0"><title>2025-11-07</title></rect>
  <rect x="520" y="121" width="13" height="13" rx="2" ry="2" fill="#ebedf0"><title>2025-11-08</title></rect>
  <rect x="536" y="25" width="13" height="13" rx="2" ry="2" fill="#ebedf0"><title>2025-11-09</title></rect>
  <rect x="536" y="41" width="13" height="13" rx="2" ry="2" fill="#ebedf0"><title>2025-11-10</title></rect>
  <rect x="536" y="57" width="13" height="13" rx="2" ry="2" fill="#ebedf0"><title>2025-11-11</title></rect>
  <rect x="536" y="73" width="13" height="13" rx="2" ry="2" fill="#ebedf0"><title>2025-11-12</title></rect>
  <rect x="536" y="89" width="13" height="13" rx="2" ry="2" fill="#ebedf0"><title>2025-11-13</title></rect>
  <rect x="536" y="105" width="13" height="13" rx="2" ry="2" fill="#ebedf0"><title>2025-11-14</title></rect>
  <rect x="536" y="121" width="13" height="13" rx="2" ry="2" fill="#ebedf0"><title>2025-11-15</title></rect>
  <rect x="552" y="25" width="13" height="13" rx="2" ry="2" fill="#ebedf0"><title>2025-11-16</title></rect>
  <rect x="552" y="41" width="13" height="13" rx="2" ry="2" fill="#ebedf0"><title>2025-11-17</title></rect>
  <rect x="552" y="57" width="13" height="13" rx="2" ry="2" fill="#ebedf0"><title>2025-11-18</title></rect>
  <rect x="552" y="73" width="13" height="13" rx="2" ry="2" fill="#ebedf0"><title>2025-11-19</title></rect>
  <rect x="552" y="89" width="13" height="13" rx="2" ry="2" fill="#ebedf0"><title>2025-11-20</title></rect>
  <rect x="552" y="105" width="13" height="13" rx="2" ry="2" fill="#ebedf0"><title>2025-11-21</title></rect>
  <rect x="552" y="121" width="13" height="13" rx="2" ry="2" fill="#ebedf0"><title>2025-11-22</title></rect>
  <rect x="568" y="25" width="13" height="13" rx="2" ry="2" fill="#ebedf0"><title>2025-11-23</title></rect>
  <rect x="568" y="41" width="13" height="13" rx="2" ry="2" fill="#ebedf0"><title>2025-11-24</title></rect>
  <rect x="568" y="57" width="13" height="13" rx="2" ry="2" fill="#ebedf0"><title>2025-11-25</title></rect>
  <rect x="568" y="73" width="13" height="13" rx="2" ry="2" fill="#ebedf0"><title>2025-11-26</title></rect>
  <rect x="568" y="89" width="13" height="13" rx="2" ry="2" fill="#ebedf0"><title>2025-11-27</title></rect>
  <rect x="568" y="105" width="13" height="13" rx="2" ry="2" fill="#ebedf0"><title>2025-11-28</title></rect>
  <rect x="568" y="121" width="13" height="13" rx="2" ry="2" fill="#ebedf0"><title>2025-11-29</title></rect>
  <rect x="584" y="25" width="13" height="13" rx="2" ry="2" fill="#ebedf0"><title>2025-11-30</title></rect>
  <rect x="584" y="41" width="13" height="13" rx="2" ry="2" fill="#ebedf0"><title>2025-12-01</title></rect>
  <rect x="584" y="57" width="13" height="13" rx="2" ry="2" fill="#ebedf0"><title>2025-12-02</title></rect>
  <rect x="584" y="73" width="13" height="13" rx="2" ry="2" fill="#ebedf0"><title>2025-12-03</title></rect>
  <rect x="584" y="89" width="13" height="13" rx="2" ry="2" fill="#ebedf0"><title>2025-12-04</title></rect>
  <rect x="584" y="105" width="13" height="13" rx="2" ry="2" fill="#ebedf0"><title>2025-12-05</title></rect>
  <rect x="584" y="121" width="13" height="13" rx="2" ry="2" fill="#ebedf0"><title>2025-12-06</title></rect>
  <rect x="600" y="25" width="13" height="13" rx="2" ry="2" fill="#ebedf0"><title>2025-12-07</title></rect>
  <rect x="600" y="41" width="13" height="13" rx="2" ry="2" fill="#ebedf0"><title>2025-12-08</title></rect>
  <rect x="600" y="57" width="13" height="13" rx="2" ry="2" fill="#ebedf0"><title>2025-12-09</title></rect>
  <rect x="600" y="73" width="13" height="13" rx="2" ry="2" fill="#ebedf0"><title>2025-12-10</title></rect>
  <rect x="600" y="89" width="13" height="13" rx="2" ry="2" fill="#ebedf0"><title>2025-12-11</title></rect>
  <rect x="600" y="105" width="13" height="13" rx="2" ry="2" fill="#ebedf0"><title>2025-12-12</title></rect>
  <rect x="600" y="121" width="13" height="13" rx="2" ry="2" fill="#ebedf0"><title>2025-12-13</title></rect>
  <rect x="616" y="25" width="13" height="13" rx="2" ry="2" fill="#ebedf0"><title>2025-12-14</title></rect>
  <rect x="616" y="41" width="13" height="13" rx="2" ry="2" fill="#ebedf0"><title>2025-12-15</title></rect>
  <rect x="616" y="57" width="13" height="13" rx="2" ry="2" fill="#ebedf0"><title>2025-12-16</title></rect>
  <rect x="616" y="73" width="13" height="13" rx="2" ry="2" fill="#ebedf0"><title>2025-12-17</title></rect>
  <rect x="616" y="89" width="13" height="13" rx="2" ry="2" fill="#ebedf0"><title>2025-12-18</title></rect>
  <rect x="616" y="105" width="13" height="13" rx="2" ry="2" fill="#ebedf0"><title>2025-12-19</title></rect>
  <rect x="616" y="121" width="13" height="13" rx="2" ry="2" fill="#ebedf0"><title>2025-12-20</title></rect>
  <rect x="632" y="25" width="13" height="13" rx="2" ry="2" fill="#ebedf0"><title>2025-12-21</title></rect>
  <rect x="632" y="41" width="13" height="13" rx="2" ry="2" fill="#ebedf0"><title>2025-12-22</title></rect>
  <rect x="632" y="57" width="13" height="13" rx="2" ry="2" fill="#ebedf0"><title>2025-12-23</title></rect>
  <rect x="632" y="73" width="13" height="13" rx="2" ry="2" fill="#ebedf0"><title>2025-12-24</title></rect>
  <rect x="632" y="89" width="13" height="13" rx="2" ry="2" fill="#ebedf0"><title>2025-12-25</title></rect>
  <rect x="632" y="105" width="13" height="13" rx="2" ry="2" fill="#ebedf0"><title>2025-12-26</title></rect>
  <rect x="632" y="121" width="13" height="13" rx="2" ry="2" fill="#ebedf0"><title>2025-12-27</title></rect>
  <rect x="648" y="25" width="13" height="13" rx="2" ry="2" fill="#ebedf0"><title>2025-12-28</title></rect>
  <rect x="648" y="41" width="13" height="13" rx="2" ry="2" fill="#ebedf0"><title>2025-12-29</title></rect>
  <rect x="648" y="57" width="13" height="13" rx="2" ry="2" fill="#ebedf0"><title>2025-12-30</title></rect>
  <rect x="648" y="73" width="13" height="13" rx="2" ry="2" fill="#ebedf0"><title>2025-12-31</title></rect>
  <rect x="648" y="89" width="13" height="13" rx="2" ry="2" fill="#ebedf0"><title>2026-01-01</title></rect>
  <rect x="648" y="105" width="13" height="13" rx="2" ry="2" fill="#ebedf0"><title>2026-01-02</title></rect>
  <rect x="648" y="121" width="13" height="13" rx="2" ry="2" fill="#ebedf0"><title>2026-01-03</title></rect>
  <rect x="664" y="25" width="13" height="13" rx="2" ry="2" fill="#ebedf0"><title>2026-01-04</title></rect>
  <rect x="664" y="41" width="13" height="13" rx="2" ry="2" fill="#ebedf0"><title>2026-01-05</title></rect>
  <rect x="664" y="57" width="13" height="13" rx="2" ry="2" fill="#ebedf0"><title>2026-01-06</title></rect>
  <rect x="664" y="73" width="13" height="13" rx="2" ry="2" fill="#ebedf0"><title>2026-01-07</title></rect>
  <rect x="664" y="89" width="13" height="13" rx="2" ry="2" fill="#ebedf0"><title>2026-01-08</title></rect>
  <rect x="664" y="105" width="13" height="13" rx="2" ry="2" fill="#ebedf0"><title>2026-01-09</title></rect>
  <rect x="664" y="121" width="13" height="13" rx="2" ry="2" fill="#ebedf0"><title>2026-01-10</title></rect>
  <rect x="680" y="25" width="13" height="13" rx="2" ry="2" fill="#ebedf0"><title>2026-01-11</title></rect>
  <rect x="680" y="41" width="13" height="13" rx="2" ry="2" fill="#ebedf0"><title>2026-01-12</title></rect>
  <rect x="680" y="57" width="13" height="13" rx="2" ry="2" fill="#ebedf0"><title>2026-01-13</title></rect>
  <rect x="680" y="73" width="13" height="13" rx="2" ry="2" fill="#ebedf0"><title>2026-01-14</title></rect>
  <rect x="680" y="89" width="13" height="13" rx="2" ry="2" fill="#ebedf0"><title>2026-01-15</title></rect>
  <rect x="680" y="105" width="13" height="13" rx="2" ry="2" fill="#ebedf0"><title>2026-01-16</title></rect>
  <rect x="680" y="121" width="13" height="13" rx="2" ry="2" fill="#ebedf0"><title>2026-01-17</title></rect>
  <rect x="696" y="25" width="13" height="13" rx="2" ry="2" fill="#ebedf0"><title>2026-01-18</title></rect>
  <rect x="696" y="41" width="13" height="13" rx="2" ry="2" fill="#ebedf0"><title>2026-01-19</title></rect>
  <rect x="696" y="57" width="13" height="13" rx="2" ry="2" fill="#ebedf0"><title>2026-01-20</title></rect>
  <rect x="696" y="73" width="13" height="13" rx="2" ry="2" fill="#ebedf0"><title>2026-01-21</title></rect>
  <rect x="696" y="89" width="13" height="13" rx="2" ry="2" fill="#ebedf0"><title>2026-01-22</title></rect>
  <rect x="696" y="105" width="13" height="13" rx="2" ry="2" fill="#ebedf0"><title>2026-01-23</title></rect>
  <rect x="696" y="121" width="13" height="13" rx="2" ry="2" fill="#ebedf0"><title>2026-01-24</title></rect>
  <rect x="712" y="25" width="13" height="13" rx="2" ry="2" fill="#ebedf0"><title>2026-01-25</title></rect>
  <rect x="712" y="41" width="13" height="13" rx="2" ry="2" fill="#ebedf0"><title>2026-01-26</title></rect>
  <rect x="712" y="57" width="13" height="13" rx="2" ry="2" fill="#ebedf0"><title>2026-01-27</title></rect>
  <rect x="712" y="73" width="13" height="13" rx="2" ry="2" fill="#ebedf0"><title>2026-01-28</title></rect>
  <rect x="712" y="89" width="13" height="13" rx="2" ry="2" fill="#ebedf0"><title>2026-01-29</title></rect>
  <rect x="712" y="105" width="13" height="13" rx="2" ry="2" fill="#ebedf0"><title>2026-01-30</title></rect>
  <rect x="712" y="121" width="13" height="13" rx="2" ry="2" fill="#ebedf0"><title>2026-01-31</title></rect>
  <rect x="728" y="25" width="13" height="13" rx="2" ry="2" fill="#ebedf0"><title>2026-02-01</title></rect>
  <rect x="728" y="41" width="13" height="13" rx="2" ry="2" fill="#ebedf0"><title>2026-02-02</title></rect>
  <rect x="728" y="57" width="13" height="13" rx="2" ry="2" fill="#ebedf0"><title>2026-02-03</title></rect>
  <rect x="728" y="73" width="13" height="13" rx="2" ry="2" fill="#ebedf0"><title>2026-02-04</title></rect>
  <rect x="728" y="89" width="13" height="13" rx="2" ry="2" fill="#ebedf0"><title>2026-02-05</title></rect>
  <rect x="728" y="105" width="13" height="13" rx="2" ry="2" fill="#ebedf0"><title>2026-02-06</title></rect>
  <rect x="728" y="121" width="13" height="13" rx="2" ry="2" fill="#ebedf0"><title>2026-02-07</title></rect>
  <rect x="744" y="25" width="13" height="13" rx="2" ry="2" fill="#ebedf0"><title>2026-02-08</title></rect>
  <rect x="744" y="41" width="13" height="13" rx="2" ry="2" fill="#ebedf0"><title>2026-02-09</title></rect>
  <rect x="744" y="57" width="13" height="13" rx="2" ry="2" fill="#ebedf0"><title>2026-02-10</title></rect>
  <rect x="744" y="73" width="13" height="13" rx="2" ry="2" fill="#ebedf0"><title>2026-02-11</title></rect>
  <rect x="744" y="89" width="13" height="13" rx="2" ry="2" fill="#ebedf0"><title>2026-02-12</title></rect>
  <rect x="744" y="105" width="13" height="13" rx="2" ry="2" fill="#ebedf0"><title>2026-02-13</title></rect>
  <rect x="744" y="121" width="13" height="13" rx="2" ry="2" fill="#ebedf0"><title>2026-02-14</title></rect>
  <rect x="760" y="25" width="13" height="13" rx="2" ry="2" fill="#ebedf0"><title>2026-02-15</title></rect>
  <rect x="760" y="41" width="13" height="13" rx="2" ry="2" fill="#ebedf0"><title>2026-02-16</title></rect>
  <rect x="760" y="57" width="13" height="13" rx="2" ry="2" fill="#ebedf0"><title>2026-02-17</title></rect>
  <rect x="760" y="73" width="13" height="13" rx="2" ry="2" fill="#ebedf0"><title>2026-02-18</title></rect>
  <rect x="760" y="89" width="13" height="13" rx="2" ry="2" fill="#ebedf0"><title>2026-02-19</title></rect>
  <rect x="760" y="105" width="13" height="13" rx="2" ry="2" fill="#ebedf0"><title>2026-02-20</title></rect>
  <rect x="760" y="121" width="13" height="13" rx="2" ry="2" fill="#ebedf0"><title>2026-02-21</title></rect>
  <rect x="776" y="25" width="13" height="13" rx="2" ry="2" fill="#ebedf0"><title>2026-02-22</title></rect>
  <rect x="776" y="41" width="13" height="13" rx="2" ry="2" fill="#ebedf0"><title>2026-02-23</title></rect>
  <rect x="776" y="57" width="13" height="13" rx="2" ry="2" fill="#ebedf0"><title>2026-02-24</title></rect>
  <rect x="776" y="73" width="13" height="13" rx="2" ry="2" fill="#ebedf0"><title>2026-02-25</title></rect>
  <rect x="776" y="89" width="13" height="13" rx="2" ry="2" fill="#ebedf0"><title>2026-02-26</title></rect>
  <rect x="776" y="105" width="13" height="13" rx="2" ry="2" fill="#ebedf0"><title>2026-02-27</title></rect>
  <rect x="776" y="121" width="13" height="13" rx="2" ry="2" fill="#ebedf0"><title>2026-02-28</title></rect>
  <rect x="792" y="25" width="13" height="13" rx="2" ry="2" fill="#ebedf0"><title>2026-03-01</title></rect>
  <rect x="792" y="41" width="13" height="13" rx="2" ry="2" fill="#ebedf0"><title>2026-03-02</title></rect>
  <rect x="792" y="57" width="13" height="13" rx="2" ry="2" fill="#ebedf0"><title>2026-03-03</title></rect>
  <rect x="792" y="73" width="13" height="13" rx="2" ry="2" fill="#ebedf0"><title>2026-03-04</title></rect>
  <rect x="792" y="89" width="13" height="13" rx="2" ry="2" fill="#ebedf0"><title>2026-03-05</title></rect>
  <rect x="792" y="105" width="13" height="13" rx="2" ry="2" fill="#ebedf0"><title>2026-03-06</title></rect>
  <rect x="792" y="121" width="13" height="13" rx="2" ry="2" fill="#ebedf0"><title>2026-03-07</title></rect>
  <rect x="808" y="25" width="13" height="13" rx="2" ry="2" fill="#ebedf0"><title>2026-03-08</title></rect>
  <rect x="808" y="41" width="13" height="13" rx="2" ry="2" fill="#ebedf0"><title>2026-03-09</title></rect>
  <rect x="808" y="57" width="13" height="13" rx="2" ry="2" fill="#ebedf0"><title>2026-03-10</title></rect>
  <rect x="808" y="73" width="13" height="13" rx="2" ry="2" fill="#ebedf0"><title>2026-03-11</title></rect>
  <rect x="808" y="89" width="13" height="13" rx="2" ry="2" fill="#ebedf0"><title>2026-03-12</title></rect>
  <rect x="808" y="105" width="13" height="13" rx="2" ry="2" fill="#ebedf0"><title>2026-03-13</title></rect>
  <rect x="808" y="121" width="13" height="13" rx="2" ry="2" fill="#ebedf0"><title>2026-03-14</title></rect>
  <rect x="824" y="25" width="13" height="13" rx="2" ry="2" fill="#ebedf0"><title>2026-03-15</title></rect>
  <rect x="824" y="41" width="13" height="13" rx="2" ry="2" fill="#ebedf0"><title>2026-03-16</title></rect>
  <rect x="824" y="57" width="13" height="13" rx="2" ry="2" fill="#ebedf0"><title>2026-03-17</title></rect>
  <rect x="824" y="73" width="13" height="13" rx="2" ry="2" fill="#ebedf0"><title>2026-03-18</title></rect>
  <rect x="824" y="89" width="13" height="13" rx="2" ry="2" fill="#ebedf0"><title>2026-03-19</title></rect>
  <rect x="824" y="105" width="13" height="13" rx="2" ry="2" fill="#ebedf0"><title>2026-03-20</title></rect>
  <rect x="824" y="121" width="13" height="13" rx="2" ry="2" fill="#ebedf0"><title>2026-03-21</title></rect>
  <rect x="840" y="25" width="13" height="13" rx="2" ry="2" fill="#ebedf0"><title>2026-03-22</title></rect>
  <rect x="840" y="41" width="13" height="13" rx="2" ry="2" fill="#ebedf0"><title>2026-03-23</title></rect>
  <rect x="840" y="57" width="13" height="13" rx="2" ry="2" fill="#ebedf0"><title>2026-03-24</title></rect>
  <rect x="840" y="73" width="13" height="13" rx="2" ry="2" fill="#ebedf0"><title>2026-03-25</title></rect>
  <rect x="840" y="89" width="13" height="13" rx="2" ry="2" fill="#ebedf0"><title>2026-03-26</title></rect>
  <rect x="840" y="105" width="13" height="13" rx="2" ry="2" fill="#ebedf0"><title>2026-03-27</title></rect>
  <rect x="840" y="121" width="13" height="13" rx="2" ry="2" fill="#ebedf0"><title>2026-03-28</title></rect>
  <rect x="856" y="25" width="13" height="13" rx="2" ry="2" fill="#ebedf0"><title>2026-03-29</title></rect>
  <rect x="856" y="41" width="13" height="13" rx="2" ry="2" fill="#ebedf0"><title>2026-03-30</title></rect>
  <rect x="856" y="57" width="13" height="13" rx="2" ry="2" fill="#ebedf0"><title>2026-03-31</title></rect>
  <text x="732" y="142" font-size="10">Less</text>
  <rect x="762" y="131" width="13" height="13" rx="2" ry="2" fill="#ebedf0" />
  <rect x="777" y="131" width="13" height="13" rx="2" ry="2" fill="#9be9a8" />
  <rect x="792" y="131" width="13" height="13" rx="2" ry="2" fill="#40c463" />
  <rect x="807" y="131" width="13" height="13" rx="2" ry="2" fill="#30a14e" />
  <rect x="822" y="131" width="13" height="13" rx="2" ry="2" fill="#216e39" />
  <text x="837" y="142" font-size="10">More</text>
</svg>